<?xml version="1.0" encoding="UTF-8"?>
<svg id="Layer_1" xmlns="http://www.w3.org/2000/svg" viewBox="0 0 271.5 119.32">
  <defs>
    <style>
      .cls-1 {
        fill: #231f20;
      }
    </style>
  </defs>
  <path class="cls-1" d="M95.28,85.23V8.49c0-1.39.37-2.75,1.08-3.95L99.06,0h-44.43l-3.08,5.19c-.46.77-.77,1.62-.92,2.51l-.42,2.49v75.03c0,1.39-.37,2.76-1.08,3.95l-2.69,4.53h22.81l-2.69-4.53c-.71-1.2-1.08-2.56-1.08-3.95v-31.03l14.55-8.4v39.43c0,1.39-.37,2.76-1.08,3.95l-2.69,4.53h22.81l-2.69-4.53c-.71-1.2-1.08-2.56-1.08-3.95M80.02,28.16l-14.55,8.4V15.27h14.55v12.9Z"/>
  <path class="cls-1" d="M148.94,8.38v76.96c0,1.32.36,2.61,1.03,3.75l2.74,4.63h-22.81l.59-1c1.06-1.79,1.32-3.95.69-5.94l-12.06-38.63v37.19c0,1.32.36,2.62,1.03,3.75l2.75,4.63h-22.81l2.74-4.63c.67-1.14,1.03-2.43,1.03-3.75V8.38c0-1.32-.36-2.62-1.03-3.75L100.08,0h22.81l-.65,1.1c-1.06,1.79-1.32,3.95-.69,5.94l12.12,38.82V8.38c0-1.32-.36-2.62-1.03-3.75L129.9,0h22.81l-2.74,4.63c-.67,1.14-1.03,2.43-1.03,3.75h0Z"/>
  <path class="cls-1" d="M172.77,8.63v76.47c0,1.48.4,2.93,1.15,4.21l2.62,4.42h-22.81l2.62-4.41c.76-1.27,1.15-2.73,1.15-4.21V8.63c0-1.48-.4-2.94-1.15-4.21L153.74,0h22.81l-2.62,4.42c-.76,1.27-1.15,2.73-1.15,4.21h0Z"/>
  <path class="cls-1" d="M207.32,0h5.33c4.21,0,7.62,3.41,7.62,7.62v11.41l-4.43-2.62c-1.26-.75-2.71-1.15-4.18-1.15h-17.61c-1.99,0-3.6,1.61-3.6,3.6v11.38c0,1.82,1.48,3.3,3.3,3.3h18.89c4.21,0,7.62,3.41,7.62,7.62v44.92c0,4.21-3.41,7.62-7.62,7.62h-29.83c-4.21,0-7.62-3.41-7.62-7.62v-18.2c0-2.73,1.46-5.24,3.81-6.6l11.45-6.61v20.07c0,2.05,1.66,3.71,3.71,3.71h7.47c1.86,0,3.37-1.51,3.37-3.37v-22.67c0-1.99-1.61-3.6-3.6-3.6h-18.59c-4.21,0-7.62-3.41-7.62-7.62V7.62c0-4.21,3.41-7.62,7.62-7.62h24.49Z"/>
  <path class="cls-1" d="M267.73,85.1c0,1.48.4,2.92,1.15,4.2l2.62,4.42h-22.81l2.62-4.42c.75-1.27,1.15-2.72,1.15-4.2v-39.31l-14.55,8.4v30.91c0,1.48.4,2.92,1.15,4.2l2.62,4.42h-22.81l2.62-4.42c.75-1.27,1.15-2.72,1.15-4.2V8.62c0-1.48-.4-2.93-1.15-4.19L218.88,0h22.81l-2.62,4.42c-.75,1.27-1.15,2.72-1.15,4.19v27.95l14.55-8.4V8.62c0-1.48-.4-2.93-1.15-4.19L248.69,0h22.81l-2.62,4.42c-.75,1.27-1.15,2.72-1.15,4.19v76.48Z"/>
  <path class="cls-1" d="M52.63,0l-3.08,5.19c-.46.77-.77,1.62-.92,2.51l-14.55,86.01h-15.39L4,7.7c-.15-.88-.46-1.73-.92-2.5L0,0h22.81l-2.4,4.05c-.89,1.49-1.21,3.25-.92,4.97l6.86,40.15,6.79-40.16c.29-1.71-.04-3.47-.92-4.96L29.82,0h22.81Z"/>
  <path class="cls-1" d="M17.86,118.99v-19.28h3.14l3.75,13.65.75,2.85c.18-.71.47-1.74.84-3.09l3.79-13.42h2.82v19.28h-2.01v-16.13l-4.61,16.13h-1.88l-4.58-16.4v16.4h-2.01Z"/>
  <path class="cls-1" d="M49.1,109.6c0-3.29.72-5.82,2.17-7.58,1.45-1.77,3.25-2.65,5.41-2.65,1.39,0,2.67.39,3.81,1.18s2.06,1.94,2.73,3.44c.67,1.5,1.01,3.29,1.01,5.37,0,2.86-.65,5.19-1.95,6.98-1.43,1.98-3.3,2.97-5.62,2.97s-4.21-1.02-5.63-3.05c-1.29-1.84-1.93-4.06-1.93-6.67M51.26,109.63c0,2.38.52,4.22,1.57,5.54,1.05,1.31,2.32,1.97,3.82,1.97s2.82-.66,3.86-1.99c1.04-1.33,1.56-3.27,1.56-5.85,0-1.66-.27-3.14-.8-4.45-.41-1-1.03-1.8-1.86-2.4-.83-.6-1.73-.9-2.72-.9-1.58,0-2.88.66-3.9,1.97-1.02,1.32-1.53,3.35-1.53,6.11"/>
  <path class="cls-1" d="M84.78,118.99l-6.14-19.28h2.26l4.12,14.01c.32,1.09.59,2.14.83,3.16.25-1.06.53-2.11.84-3.16l4.28-14.01h2.13l-6.18,19.28h-2.15Z"/>
  <rect class="cls-1" x="108.73" y="99.71" width="2.09" height="19.28"/>
  <polygon class="cls-1" points="127.77 118.99 127.77 99.71 129.92 99.71 138.23 114.88 138.23 99.71 140.23 99.71 140.23 118.99 138.09 118.99 129.79 103.82 129.79 118.99 127.77 118.99"/>
  <path class="cls-1" d="M164.59,111.43v-2.28h6.7s0,7.16,0,7.16c-1.03,1-2.09,1.75-3.18,2.26-1.1.51-2.22.76-3.38.76-1.54,0-2.92-.39-4.13-1.16-1.21-.77-2.17-1.9-2.87-3.38-.71-1.48-1.06-3.26-1.06-5.34s.35-3.94,1.07-5.5c.71-1.56,1.64-2.71,2.79-3.45,1.15-.74,2.51-1.11,4.08-1.11,1.16,0,2.17.21,3.04.64.87.43,1.58,1.04,2.14,1.83.56.79.98,1.87,1.26,3.25l-1.88.63c-.25-1.09-.57-1.9-.96-2.44s-.89-.96-1.53-1.27c-.63-.31-1.34-.46-2.13-.46-1.15,0-2.14.28-2.97.84-.83.56-1.5,1.42-2,2.6-.51,1.18-.76,2.61-.76,4.31,0,2.58.54,4.51,1.62,5.8,1.08,1.29,2.48,1.93,4.21,1.93.82,0,1.67-.2,2.53-.59.86-.39,1.55-.86,2.06-1.41v-3.59h-4.64Z"/>
  <path class="cls-1" d="M218.42,112.23l2.1.64c-.47,2.17-1.28,3.78-2.44,4.85-1.16,1.07-2.58,1.6-4.24,1.6-1.46,0-2.72-.36-3.76-1.07-1.04-.71-1.89-1.86-2.55-3.44-.66-1.58-.99-3.44-.99-5.59s.33-3.92.99-5.39c.66-1.47,1.56-2.58,2.69-3.33,1.13-.75,2.4-1.13,3.79-1.13,1.53,0,2.84.48,3.94,1.42,1.1.95,1.86,2.34,2.3,4.18l-2.05.59c-.7-2.68-2.11-4.01-4.23-4.01-1.05,0-1.97.27-2.74.81-.77.54-1.39,1.38-1.85,2.52-.46,1.14-.69,2.59-.69,4.33,0,2.64.46,4.62,1.39,5.94.93,1.32,2.17,1.98,3.71,1.98,1.14,0,2.12-.41,2.95-1.22.83-.81,1.38-2.04,1.66-3.69"/>
  <path class="cls-1" d="M235.91,109.6c0-3.29.72-5.82,2.17-7.58,1.45-1.77,3.25-2.65,5.41-2.65,1.39,0,2.67.39,3.81,1.18,1.15.79,2.06,1.94,2.73,3.44.67,1.5,1.01,3.29,1.01,5.37,0,2.86-.65,5.19-1.95,6.98-1.43,1.98-3.3,2.97-5.62,2.97s-4.21-1.02-5.63-3.05c-1.29-1.84-1.93-4.06-1.93-6.67M238.07,109.63c0,2.38.52,4.22,1.57,5.54,1.05,1.31,2.32,1.97,3.82,1.97s2.82-.66,3.86-1.99c1.04-1.33,1.56-3.27,1.56-5.85,0-1.66-.27-3.14-.8-4.45-.41-1-1.03-1.8-1.86-2.4-.83-.6-1.73-.9-2.72-.9-1.58,0-2.88.66-3.9,1.97-1.02,1.32-1.53,3.35-1.53,6.11"/>
  <rect class="cls-1" x="267.38" y="116.3" width="2.21" height="2.7"/>
</svg>