<?xml version="1.0" encoding="UTF-8"?><svg id="Layer_1" xmlns="http://www.w3.org/2000/svg" viewBox="0 0 421.42 421.42"><path d="M162.34,247.62v-89.82c0-1.63.44-3.22,1.27-4.63l3.15-5.3h-52.01l-3.6,6.07c-.54.91-.9,1.9-1.08,2.94l-.49,2.91v87.83c0,1.63-.44,3.23-1.27,4.63l-3.15,5.3h26.7l-3.15-5.3c-.83-1.4-1.27-3-1.27-4.63v-36.33l17.03-9.83v46.16c0,1.63-.44,3.23-1.27,4.63l-3.14,5.3h26.7l-3.15-5.3c-.83-1.4-1.27-3-1.27-4.63ZM144.47,180.83l-17.03,9.83v-24.93h17.03v15.1Z"/><path d="M225.14,157.67v90.08c0,1.54.42,3.06,1.2,4.39l3.21,5.42h-26.7l.69-1.17c1.24-2.1,1.54-4.63.81-6.96l-14.12-45.21v43.53c0,1.55.42,3.06,1.2,4.39l3.21,5.41h-26.7l3.21-5.41c.79-1.33,1.2-2.85,1.2-4.39v-90.07c0-1.55-.42-3.06-1.2-4.39l-3.21-5.41h26.7l-.76,1.28c-1.24,2.1-1.54,4.63-.81,6.96l14.19,45.44v-43.87c0-1.55-.42-3.06-1.2-4.39l-3.21-5.42h26.7l-3.21,5.42c-.78,1.31-1.2,2.83-1.2,4.37h0Z"/><path d="M253.04,157.96v89.5c0,1.73.47,3.43,1.35,4.93l3.07,5.17h-26.7l3.07-5.17c.89-1.49,1.35-3.19,1.35-4.92v-89.51c0-1.73-.47-3.44-1.35-4.92l-3.07-5.17h26.7l-3.07,5.17c-.88,1.49-1.34,3.19-1.35,4.92h0Z"/><path d="M293.47,147.87h6.24c4.93,0,8.92,3.99,8.92,8.92v13.36l-5.19-3.07c-1.48-.88-3.17-1.34-4.89-1.34h-20.62c-2.32,0-4.21,1.88-4.21,4.21v13.32c0,2.13,1.73,3.86,3.87,3.86h22.11c4.93,0,8.92,3.99,8.92,8.92v52.58c0,4.93-3.99,8.92-8.92,8.92h-34.92c-4.93,0-8.92-3.99-8.92-8.92v-21.3c0-3.19,1.7-6.14,4.46-7.73l13.41-7.74v23.5c0,2.4,1.94,4.34,4.34,4.34h8.75c2.18,0,3.95-1.77,3.95-3.95v-26.54c0-2.33-1.88-4.21-4.21-4.21h-21.76c-4.93,0-8.92-3.99-8.92-8.92v-39.28c0-4.93,3.99-8.92,8.92-8.92h28.67Z"/><path d="M364.19,247.47c0,1.73.47,3.42,1.35,4.91l3.07,5.18h-26.7l3.07-5.18c.88-1.49,1.35-3.18,1.35-4.91v-46.01l-17.03,9.83v36.18c0,1.73.47,3.42,1.34,4.91l3.07,5.18h-26.7l3.07-5.18c.88-1.49,1.34-3.18,1.34-4.91v-89.52c0-1.73-.47-3.42-1.34-4.91l-3.07-5.18h26.7l-3.07,5.18c-.88,1.49-1.34,3.18-1.34,4.91v32.71l17.03-9.83v-22.88c0-1.73-.47-3.42-1.35-4.91l-3.07-5.18h26.7l-3.07,5.18c-.88,1.49-1.35,3.18-1.35,4.91v89.52Z"/><path d="M112.41,147.87l-3.6,6.08c-.54.91-.9,1.9-1.08,2.94l-17.03,100.67h-18.01l-17.2-100.68c-.17-1.03-.54-2.03-1.07-2.93l-3.61-6.08h26.7l-2.81,4.74c-1.04,1.75-1.42,3.81-1.08,5.81l8.03,47,7.95-47.01c.34-2-.04-4.06-1.08-5.8l-2.81-4.74h26.7Z"/><path d="M73.65,284.18v-22.57h3.68l4.39,15.98.88,3.34c.22-.83.54-2.04.99-3.62l4.44-15.7h3.3v22.57h-2.36v-18.88l-5.4,18.88h-2.2l-5.37-19.2v19.2h-2.35Z"/><path d="M110.22,273.18c0-3.85.85-6.81,2.54-8.88,1.69-2.07,3.8-3.1,6.33-3.1,1.63,0,3.12.46,4.46,1.39,1.34.92,2.41,2.27,3.19,4.03s1.18,3.86,1.18,6.29c0,3.35-.76,6.07-2.28,8.18-1.67,2.32-3.86,3.48-6.57,3.48s-4.93-1.19-6.59-3.57c-1.51-2.17-2.26-4.77-2.26-7.82ZM112.74,273.22c0,2.78.61,4.94,1.84,6.48s2.72,2.3,4.47,2.3,3.3-.78,4.52-2.33,1.82-3.83,1.82-6.84c0-1.94-.31-3.68-.94-5.21-.48-1.17-1.21-2.11-2.18-2.81-.97-.7-2.03-1.06-3.18-1.06-1.85,0-3.37.77-4.57,2.31-1.18,1.55-1.78,3.94-1.78,7.16Z"/><path d="M151.98,284.18l-7.19-22.57h2.65l4.83,16.4c.37,1.27.69,2.5.97,3.7.29-1.24.62-2.47.99-3.7l5.01-16.4h2.49l-7.23,22.57h-2.52Z"/><path d="M180.02,284.18v-22.57h2.45v22.57h-2.45Z"/><path d="M202.31,284.18v-22.57h2.51l9.73,17.76v-17.76h2.34v22.57h-2.51l-9.71-17.76v17.76h-2.36Z"/><path d="M245.4,275.32v-2.66l7.84-.02v8.39c-1.2,1.17-2.44,2.05-3.73,2.64-1.28.59-2.6.89-3.96.89-1.81,0-3.42-.45-4.83-1.36-1.42-.9-2.54-2.22-3.36-3.96-.83-1.74-1.24-3.82-1.24-6.26s.42-4.61,1.25-6.44c.83-1.83,1.92-3.18,3.26-4.04,1.34-.87,2.94-1.3,4.77-1.3,1.35,0,2.54.25,3.56.75s1.85,1.22,2.51,2.14,1.15,2.19,1.48,3.8l-2.2.74c-.3-1.27-.67-2.22-1.12-2.86-.45-.63-1.05-1.13-1.79-1.49s-1.57-.54-2.49-.54c-1.34,0-2.5.33-3.47.98-.97.65-1.75,1.67-2.34,3.04-.59,1.38-.89,3.06-.89,5.04,0,3.02.63,5.28,1.89,6.79,1.26,1.5,2.9,2.26,4.93,2.26.96,0,1.95-.23,2.96-.69,1.01-.46,1.81-1.01,2.41-1.65v-4.2h-5.44Z"/><path d="M308.41,276.26l2.46.75c-.54,2.53-1.5,4.43-2.86,5.67-1.36,1.25-3.01,1.87-4.96,1.87-1.71,0-3.18-.42-4.4-1.26s-2.21-2.18-2.99-4.03c-.77-1.85-1.16-4.03-1.16-6.55s.39-4.59,1.16-6.31c.78-1.72,1.83-3.02,3.15-3.9,1.33-.88,2.8-1.32,4.44-1.32,1.79,0,3.32.56,4.61,1.67,1.28,1.11,2.18,2.74,2.7,4.89l-2.4.69c-.82-3.13-2.47-4.7-4.95-4.7-1.23,0-2.3.32-3.21.95-.9.63-1.63,1.62-2.17,2.95-.54,1.34-.81,3.03-.81,5.07,0,3.09.54,5.41,1.63,6.96s2.53,2.32,4.34,2.32c1.33,0,2.49-.47,3.46-1.42.98-.93,1.63-2.37,1.96-4.3Z"/><path d="M328.88,273.18c0-3.85.85-6.81,2.54-8.88s3.8-3.1,6.33-3.1c1.63,0,3.12.46,4.46,1.39,1.34.92,2.41,2.27,3.19,4.03s1.18,3.86,1.18,6.29c0,3.35-.76,6.07-2.28,8.18-1.67,2.32-3.86,3.48-6.57,3.48s-4.93-1.19-6.59-3.57c-1.51-2.17-2.26-4.77-2.26-7.82ZM331.41,273.22c0,2.78.61,4.94,1.84,6.48s2.72,2.3,4.47,2.3,3.3-.78,4.52-2.33,1.82-3.83,1.82-6.84c0-1.94-.31-3.68-.94-5.21-.48-1.17-1.21-2.11-2.18-2.81s-2.03-1.06-3.18-1.06c-1.85,0-3.37.77-4.57,2.31-1.19,1.55-1.78,3.94-1.78,7.16Z"/><path d="M365.72,284.18v-3.16h2.59v3.16h-2.59Z"/><circle cx="210.71" cy="210.71" r="196.21" fill="none" stroke="#000" stroke-miterlimit="10" stroke-width="29"/></svg>