<?xml version="1.0" encoding="utf-8"?>
<!-- Generator: Adobe Illustrator 28.1.0, SVG Export Plug-In . SVG Version: 6.00 Build 0)  -->
<svg version="1.1" id="Layer_1" xmlns="http://www.w3.org/2000/svg" xmlns:xlink="http://www.w3.org/1999/xlink" x="0px" y="0px"
	 viewBox="0 0 612 792" style="enable-background:new 0 0 612 792;" xml:space="preserve">
<style type="text/css">
	.st0{fill:none;stroke:#000000;stroke-width:29;stroke-miterlimit:10;}
</style>
<g>
	<path d="M258.61,440.64v-89.82c0-1.63,0.44-3.22,1.27-4.63l3.15-5.3h-52.01l-3.6,6.07c-0.54,0.91-0.9,1.9-1.08,2.94l-0.49,2.91
		v87.83c0,1.63-0.44,3.23-1.27,4.63l-3.15,5.3h26.7l-3.15-5.3c-0.83-1.4-1.27-3-1.27-4.63v-36.33l17.03-9.83v46.16
		c0,1.63-0.44,3.23-1.27,4.63l-3.14,5.3h26.7l-3.15-5.3C259.05,443.87,258.61,442.27,258.61,440.64z M240.74,373.85l-17.03,9.83
		v-24.93h17.03V373.85z"/>
	<path d="M321.41,350.69v90.08c0,1.54,0.42,3.06,1.2,4.39l3.21,5.42h-26.7l0.69-1.17c1.24-2.1,1.54-4.63,0.81-6.96l-14.12-45.21
		v43.53c0,1.55,0.42,3.06,1.2,4.39l3.21,5.41h-26.7l3.21-5.41c0.79-1.33,1.2-2.85,1.2-4.39V350.7c0-1.55-0.42-3.06-1.2-4.39
		l-3.21-5.41h26.7l-0.76,1.28c-1.24,2.1-1.54,4.63-0.81,6.96l14.19,45.44v-43.87c0-1.55-0.42-3.06-1.2-4.39l-3.21-5.42h26.7
		l-3.21,5.42C321.83,347.63,321.41,349.15,321.41,350.69L321.41,350.69z"/>
	<path d="M349.31,350.98v89.5c0,1.73,0.47,3.43,1.35,4.93l3.07,5.17h-26.7l3.07-5.17c0.89-1.49,1.35-3.19,1.35-4.92v-89.51
		c0-1.73-0.47-3.44-1.35-4.92l-3.07-5.17h26.7l-3.07,5.17C349.78,347.55,349.32,349.25,349.31,350.98L349.31,350.98z"/>
	<path d="M389.74,340.89h6.24c4.93,0,8.92,3.99,8.92,8.92v13.36l-5.19-3.07c-1.48-0.88-3.17-1.34-4.89-1.34h-20.62
		c-2.32,0-4.21,1.88-4.21,4.21v13.32c0,2.13,1.73,3.86,3.87,3.86h22.11c4.93,0,8.92,3.99,8.92,8.92v52.58
		c0,4.93-3.99,8.92-8.92,8.92h-34.92c-4.93,0-8.92-3.99-8.92-8.92v-21.3c0-3.19,1.7-6.14,4.46-7.73l13.41-7.74v23.5
		c0,2.4,1.94,4.34,4.34,4.34h8.75c2.18,0,3.95-1.77,3.95-3.95v-26.54c0-2.33-1.88-4.21-4.21-4.21h-21.76
		c-4.93,0-8.92-3.99-8.92-8.92v-39.28c0-4.93,3.99-8.92,8.92-8.92L389.74,340.89L389.74,340.89z"/>
	<path d="M460.46,440.49c0,1.73,0.47,3.42,1.35,4.91l3.07,5.18h-26.7l3.07-5.18c0.88-1.49,1.35-3.18,1.35-4.91v-46.01l-17.03,9.83
		v36.18c0,1.73,0.47,3.42,1.34,4.91l3.07,5.18h-26.7l3.07-5.18c0.88-1.49,1.34-3.18,1.34-4.91v-89.52c0-1.73-0.47-3.42-1.34-4.91
		l-3.07-5.18h26.7l-3.07,5.18c-0.88,1.49-1.34,3.18-1.34,4.91v32.71l17.03-9.83v-22.88c0-1.73-0.47-3.42-1.35-4.91l-3.07-5.18h26.7
		l-3.07,5.18c-0.88,1.49-1.35,3.18-1.35,4.91V440.49z"/>
	<path d="M208.68,340.89l-3.6,6.08c-0.54,0.91-0.9,1.9-1.08,2.94l-17.03,100.67h-18.01l-17.2-100.68c-0.17-1.03-0.54-2.03-1.07-2.93
		l-3.61-6.08h26.7l-2.81,4.74c-1.04,1.75-1.42,3.81-1.08,5.81l8.03,47l7.95-47.01c0.34-2-0.04-4.06-1.08-5.8l-2.81-4.74H208.68z"/>
</g>
<g>
	<path d="M169.92,474.2v-22.57h3.68l4.39,15.98l0.88,3.34c0.22-0.83,0.54-2.04,0.99-3.62l4.44-15.7h3.3v22.57h-2.36v-18.88
		l-5.4,18.88h-2.2l-5.37-19.2v19.2H169.92z"/>
	<path d="M206.49,463.2c0-3.85,0.85-6.81,2.54-8.88c1.69-2.07,3.8-3.1,6.33-3.1c1.63,0,3.12,0.46,4.46,1.39
		c1.34,0.92,2.41,2.27,3.19,4.03c0.78,1.76,1.18,3.86,1.18,6.29c0,3.35-0.76,6.07-2.28,8.18c-1.67,2.32-3.86,3.48-6.57,3.48
		c-2.73,0-4.93-1.19-6.59-3.57C207.24,468.85,206.49,466.25,206.49,463.2z M209.01,463.24c0,2.78,0.61,4.94,1.84,6.48
		c1.23,1.54,2.72,2.3,4.47,2.3c1.8,0,3.3-0.78,4.52-2.33c1.22-1.55,1.82-3.83,1.82-6.84c0-1.94-0.31-3.68-0.94-5.21
		c-0.48-1.17-1.21-2.11-2.18-2.81c-0.97-0.7-2.03-1.06-3.18-1.06c-1.85,0-3.37,0.77-4.57,2.31
		C209.61,457.63,209.01,460.02,209.01,463.24z"/>
	<path d="M248.25,474.2l-7.19-22.57h2.65l4.83,16.4c0.37,1.27,0.69,2.5,0.97,3.7c0.29-1.24,0.62-2.47,0.99-3.7l5.01-16.4H258
		l-7.23,22.57H248.25z"/>
	<path d="M276.29,474.2v-22.57h2.45v22.57H276.29z"/>
	<path d="M298.58,474.2v-22.57h2.51l9.73,17.76v-17.76h2.34v22.57h-2.51l-9.71-17.76v17.76H298.58z"/>
	<path d="M341.67,465.34v-2.66l7.84-0.02v8.39c-1.2,1.17-2.44,2.05-3.73,2.64c-1.28,0.59-2.6,0.89-3.96,0.89
		c-1.81,0-3.42-0.45-4.83-1.36c-1.42-0.9-2.54-2.22-3.36-3.96c-0.83-1.74-1.24-3.82-1.24-6.26c0-2.46,0.42-4.61,1.25-6.44
		c0.83-1.83,1.92-3.18,3.26-4.04c1.34-0.87,2.94-1.3,4.77-1.3c1.35,0,2.54,0.25,3.56,0.75s1.85,1.22,2.51,2.14
		c0.66,0.92,1.15,2.19,1.48,3.8l-2.2,0.74c-0.3-1.27-0.67-2.22-1.12-2.86c-0.45-0.63-1.05-1.13-1.79-1.49s-1.57-0.54-2.49-0.54
		c-1.34,0-2.5,0.33-3.47,0.98c-0.97,0.65-1.75,1.67-2.34,3.04c-0.59,1.38-0.89,3.06-0.89,5.04c0,3.02,0.63,5.28,1.89,6.79
		c1.26,1.5,2.9,2.26,4.93,2.26c0.96,0,1.95-0.23,2.96-0.69c1.01-0.46,1.81-1.01,2.41-1.65v-4.2H341.67z"/>
	<path d="M404.68,466.28l2.46,0.75c-0.54,2.53-1.5,4.43-2.86,5.67c-1.36,1.25-3.01,1.87-4.96,1.87c-1.71,0-3.18-0.42-4.4-1.26
		c-1.22-0.84-2.21-2.18-2.99-4.03c-0.77-1.85-1.16-4.03-1.16-6.55c0-2.49,0.39-4.59,1.16-6.31c0.78-1.72,1.83-3.02,3.15-3.9
		c1.33-0.88,2.8-1.32,4.44-1.32c1.79,0,3.32,0.56,4.61,1.67c1.28,1.11,2.18,2.74,2.7,4.89l-2.4,0.69c-0.82-3.13-2.47-4.7-4.95-4.7
		c-1.23,0-2.3,0.32-3.21,0.95c-0.9,0.63-1.63,1.62-2.17,2.95c-0.54,1.34-0.81,3.03-0.81,5.07c0,3.09,0.54,5.41,1.63,6.96
		c1.09,1.55,2.53,2.32,4.34,2.32c1.33,0,2.49-0.47,3.46-1.42C403.7,469.65,404.35,468.21,404.68,466.28z"/>
	<path d="M425.15,463.2c0-3.85,0.85-6.81,2.54-8.88c1.69-2.07,3.8-3.1,6.33-3.1c1.63,0,3.12,0.46,4.46,1.39
		c1.34,0.92,2.41,2.27,3.19,4.03c0.78,1.76,1.18,3.86,1.18,6.29c0,3.35-0.76,6.07-2.28,8.18c-1.67,2.32-3.86,3.48-6.57,3.48
		c-2.73,0-4.93-1.19-6.59-3.57C425.9,468.85,425.15,466.25,425.15,463.2z M427.68,463.24c0,2.78,0.61,4.94,1.84,6.48
		c1.23,1.54,2.72,2.3,4.47,2.3c1.8,0,3.3-0.78,4.52-2.33c1.22-1.55,1.82-3.83,1.82-6.84c0-1.94-0.31-3.68-0.94-5.21
		c-0.48-1.17-1.21-2.11-2.18-2.81c-0.97-0.7-2.03-1.06-3.18-1.06c-1.85,0-3.37,0.77-4.57,2.31
		C428.27,457.63,427.68,460.02,427.68,463.24z"/>
	<path d="M461.99,474.2v-3.16h2.59v3.16H461.99z"/>
</g>
<circle class="st0" cx="305.98" cy="395.73" r="196.21"/>
</svg>
